<?xml version="1.0" encoding="UTF-8" standalone="no"?>
<svg
   version="1.1"
   style="display:block"
   viewBox="0 0 30.838301 32.825944"
   width="15.900001"
   height="16.925877"
   preserveAspectRatio="none"
   id="svg7"
   sodipodi:docname="AIVector_1758703772.svg"
   inkscape:version="1.4.2 (ebf0e940, 2025-05-08)"
   xmlns:inkscape="http://www.inkscape.org/namespaces/inkscape"
   xmlns:sodipodi="http://sodipodi.sourceforge.net/DTD/sodipodi-0.dtd"
   xmlns="http://www.w3.org/2000/svg"
   xmlns:svg="http://www.w3.org/2000/svg">
  <defs
     id="defs7" />
  <sodipodi:namedview
     id="namedview7"
     pagecolor="#ffffff"
     bordercolor="#000000"
     borderopacity="0.25"
     inkscape:showpageshadow="2"
     inkscape:pageopacity="0.0"
     inkscape:pagecheckerboard="true"
     inkscape:deskcolor="#d1d1d1"
     showgrid="false"
     inkscape:zoom="35.830585"
     inkscape:cx="7.3540525"
     inkscape:cy="4.6747772"
     inkscape:window-width="1592"
     inkscape:window-height="1168"
     inkscape:window-x="0"
     inkscape:window-y="40"
     inkscape:window-maximized="0"
     inkscape:current-layer="svg7"
     inkscape:clip-to-page="false" />
  <path
     fill="#808080"
     d="m 14.241773,0.01839994 c 0.29665,-0.03 0.61019,-0.015 0.90805,-0.012 1.9916,0.064 3.77166,0.4 5.5451,1.09749996 3.93917,1.5424 7.12534,4.6555 8.85308,8.6502 1.63278,3.9516001 1.71911,8.4104001 0.2409,12.4274001 -1.05392,2.8131 -2.90148,5.4383 -5.24809,7.2313 -0.33881,0.2591 -0.95018,0.7767 -1.31489,0.9971 -0.33635,-0.6722 -0.79038,-1.8415 -0.96856,-2.3215 -0.20005,-0.5244 -0.36386,-0.9477 -0.52537,-1.4856 0.259,-0.2956 0.70962,-0.5854 1.0198,-0.8576 2.42305,-2.1277 3.93243,-5.172 4.1948,-8.4602 0.18678,-2.6201 -0.45967,-5.2313 -1.83998,-7.4311001 -1.77659,-2.8509 -4.56141,-4.8576 -7.75052,-5.5848 -1.01812,-0.2247 -2.06022,-0.3088 -3.09948,-0.25 -3.7023,0.1897 -6.9205099,2.0959 -9.1288399,5.171 -0.37249,0.5187 -0.5141,0.9146001 -0.76468,1.2687001 -0.18364,0.3482 -0.67617,1.3575 -0.67617,1.3575 -0.0311,0 -3.88027996,-1.1006 -3.67931996,-1.159 0,0 0.176,-0.5788 0.26463,-0.7868001 0.68819,-1.6081 1.59568996,-3.0539 2.71748996,-4.3416 3.00706,-3.4494 6.78529,-5.28039996 11.2520499,-5.51069996 z"
     id="path3"
     style="stroke-width:0.0214828"
     sodipodi:nodetypes="ccccccccccccccsccsccc" />
  <path
     fill="#808080"
     d="m 10.630863,28.4506 c 0.26483,0.011 0.55026,0.1201 0.80984,0.185 0.33702,0.085 0.6776,0.1532 1.02068,0.2054 1.45678,0.2371 2.94186,0.2121 4.3906,-0.073 0.39671,-0.08 0.78164,-0.1995 1.17541,-0.2918 0.31667,0.6106 0.99217,3.15 1.13141,3.5578 -0.44987,0.2105 -0.87199,0.3233 -1.06992,0.3726 -1.91684,0.4386 -3.80611,0.5348 -5.75536,0.2808 -1.01599,-0.099 -1.93665,-0.3799 -2.8949199,-0.6925 0.16562,-0.5645 0.33588,-1.1345 0.52704,-1.6807 C 10.178513,29.6948 10.370993,29.05 10.630863,28.451 Z"
     id="path5"
     style="stroke-width:0.0214828"
     sodipodi:nodetypes="ccccccccccc" />
  <path
     fill="#808080"
     d="m 5.0178331,23.7914 c 0.2064,0.3245 2.11237,2.7394 2.12755,2.7803 -0.66191,1.3054 -1.55734,2.7978 -1.76653,3.11 -0.31086,-0.2243 -1.74817,-1.6101 -2.00229,-1.8477 -0.60405,-0.7568 -0.83349,-0.9279 -1.73362,-2.3774 0,0 2.25707,-1.1408 3.37489,-1.6652 z"
     id="path7"
     style="stroke-width:0.0214828"
     sodipodi:nodetypes="cccccc" />
</svg>
